<svg width="13" height="13" viewBox="0 0 13 13" fill="none" xmlns="http://www.w3.org/2000/svg">
<g clip-path="url(#clip0_162_263)">
<path d="M2.01825 4.03655H10.0913M2.01825 4.03655V8.47683C2.01825 9.042 2.01825 9.32444 2.12824 9.5403C2.22499 9.73018 2.37925 9.88472 2.56913 9.98147C2.78479 10.0913 3.06724 10.0913 3.6313 10.0913H8.47826C9.04232 10.0913 9.32436 10.0913 9.54002 9.98147C9.7299 9.88472 9.88468 9.73018 9.98143 9.5403C10.0913 9.32465 10.0913 9.0426 10.0913 8.47854V4.03655M2.01825 4.03655V3.633C2.01825 3.06783 2.01825 2.78504 2.12824 2.56917C2.22499 2.37929 2.37925 2.22503 2.56913 2.12828C2.785 2.01829 3.06779 2.01829 3.63296 2.01829H4.03651M10.0913 4.03655V3.63134C10.0913 3.06728 10.0913 2.78483 9.98143 2.56917C9.88468 2.37929 9.7299 2.22503 9.54002 2.12828C9.32415 2.01829 9.04196 2.01829 8.4768 2.01829H8.07304M8.07304 1.00916V2.01829M8.07304 2.01829H4.03651M4.03651 1.00916V2.01829" stroke="white" stroke-linecap="round" stroke-linejoin="round"/>
</g>
<defs>
<clipPath id="clip0_162_263">
<rect width="12.1096" height="12.1096" fill="white"/>
</clipPath>
</defs>
</svg>
