<svg width="118" height="33" viewBox="0 0 118 33" fill="none" xmlns="http://www.w3.org/2000/svg">
<path d="M24.5319 0H8.86472C4.94183 0 2.51438 3.05118 4.5249 5.45544C9.39239 11.2762 16.557 19.9814 17.8887 22.3577C18.5357 23.5122 18.142 24.3843 17.2994 25.0373C17.1865 25.1248 17.0215 25.0867 16.9612 24.957C16.4536 23.8667 15.5667 22.7924 14.3149 21.8506C10.6056 19.0598 5.09955 18.4895 2.01685 20.5768C-1.06585 22.6641 -0.557847 26.6186 3.15151 29.4094C5.38219 31.0877 8.46896 31.8455 10.8749 31.9987C13.3358 32.1554 20.7569 31.6159 22.0626 25.558C22.7109 22.5506 19.1624 18.8106 16.2396 15.2589C13.675 12.1425 11.4279 9.41675 10.7816 8.63295L9.09154 6.58591C8.92078 6.37907 9.19737 6.10388 9.40236 6.27668C9.42025 6.29176 9.43821 6.3069 9.45624 6.32211C10.8986 7.53838 12.7049 8.2378 14.5887 8.30664C16.3061 8.3694 18.2776 8.59069 19.8583 9.17932C22.3159 10.0945 23.7246 11.4573 24.3738 12.2347C24.4974 12.3827 24.816 12.3194 24.816 12.1471V0.202796C24.816 0.0907954 24.6888 0 24.5319 0Z" fill="url(#paint0_linear_138_744)"/>
<path d="M39.0143 15.2427C37.8927 15.2427 36.9417 15.1046 36.1614 14.8288C35.3811 14.5529 34.7308 14.1797 34.2107 13.7087C33.6903 13.2381 33.2921 12.6902 33.0159 12.0651C32.7393 11.4404 32.5526 10.7708 32.4551 10.0563L35.1617 9.5206C35.2752 10.2187 35.5069 10.8153 35.8566 11.3103C36.206 11.8056 36.6613 12.1831 37.2221 12.4425C37.783 12.7024 38.4291 12.8321 39.1606 12.8321C40.1196 12.8321 40.8389 12.6659 41.3186 12.333C41.7979 12.0004 42.0379 11.5336 42.0379 10.9329C42.0379 10.5433 41.9282 10.2066 41.7087 9.92237C41.4893 9.63854 41.1151 9.39886 40.5871 9.20407C40.0586 9.00927 39.3393 8.84719 38.4291 8.71709C37.0636 8.48995 35.9987 8.1734 35.2348 7.76746C34.4706 7.36189 33.9219 6.85436 33.5889 6.24562C33.2556 5.63687 33.089 4.96727 33.089 4.2368C33.089 2.95465 33.5604 1.9278 34.5033 1.15661C35.4459 0.385777 36.8034 0 38.5754 0C39.8434 0 40.8835 0.211169 41.6966 0.633094C42.5092 1.05541 43.1352 1.61924 43.5741 2.32538C44.013 3.0315 44.33 3.83922 44.5251 4.74813L41.7941 5.30817C41.6478 4.65911 41.4443 4.11922 41.1845 3.68894C40.9242 3.25902 40.5749 2.9303 40.136 2.70278C39.6971 2.47565 39.1278 2.36189 38.4291 2.36189C37.6161 2.36189 36.9905 2.52853 36.5516 2.86106C36.1127 3.19397 35.8932 3.63644 35.8932 4.18811C35.8932 4.49665 35.9823 4.78886 36.1614 5.06467C36.3401 5.34089 36.7016 5.58438 37.2465 5.79516C37.791 6.00633 38.5914 6.20909 39.6483 6.40391C40.6724 6.56635 41.5217 6.79349 42.1964 7.08567C42.8708 7.37788 43.4034 7.71497 43.7935 8.09619C44.1837 8.47777 44.4599 8.8997 44.6226 9.36235C44.7849 9.82498 44.8664 10.3162 44.8664 10.8355C44.8664 11.7121 44.6592 12.4833 44.2446 13.1487C43.8301 13.8145 43.192 14.3296 42.3305 14.6949C41.4687 15.0601 40.3634 15.2427 39.0143 15.2427Z" fill="#CCD0FF"/>
<path d="M53.6447 11.7852H52.9376L53.3765 10.7625C53.295 11.8339 53.0717 12.6945 52.706 13.3436C52.3402 13.993 51.8769 14.472 51.3161 14.7802C50.7553 15.0884 50.1007 15.2428 49.3532 15.2428C48.4266 15.2428 47.6867 15.0518 47.1343 14.6706C46.5814 14.2894 46.1791 13.778 45.9273 13.1366C45.675 12.4955 45.5493 11.7692 45.5493 10.9573V3.48206H48.1828V10.2512C48.1828 10.7058 48.2559 11.1319 48.4022 11.5295C48.5485 11.9275 48.8004 12.2478 49.1581 12.4913C49.5155 12.7348 49.9872 12.8566 50.5724 12.8566C51.1412 12.8566 51.6247 12.7554 52.0232 12.5522C52.4213 12.3494 52.7303 12.0492 52.9498 11.6513C53.1692 11.2537 53.279 10.7869 53.279 10.2512V3.48206H55.9124V14.9263H53.279V11.006L53.6447 11.7852Z" fill="#CCD0FF"/>
<path d="M59.3018 7.2562L59.7894 7.23186L59.5212 8.13279C59.6348 7.19154 59.7853 6.41616 59.9723 5.80743C60.159 5.19869 60.3869 4.72807 60.6551 4.39515C60.9233 4.06265 61.2483 3.82713 61.6304 3.68903C62.0122 3.5513 62.4389 3.48206 62.9106 3.48206H63.5689V6.42834H62.4473C61.7645 6.42834 61.2117 6.51355 60.7892 6.68399C60.3663 6.85445 60.0615 7.13446 59.8748 7.52406C59.6877 7.91365 59.5944 8.44932 59.5944 9.13111V14.9263H56.9609V3.48206H59.5944V7.96234L59.3018 7.2562Z" fill="#CCD0FF"/>
<path d="M66.69 7.2562L67.1776 7.23186L66.9094 8.13279C67.0229 7.19154 67.1735 6.41616 67.3605 5.80743C67.5472 5.19869 67.7751 4.72807 68.0432 4.39515C68.3115 4.06265 68.6365 3.82713 69.0186 3.68903C69.4004 3.5513 69.8271 3.48206 70.2987 3.48206H70.9571V6.42834H69.8355C69.1527 6.42834 68.5999 6.51355 68.1774 6.68399C67.7545 6.85445 67.4497 7.13446 67.263 7.52406C67.0759 7.91365 66.9826 8.44932 66.9826 9.13111V14.9263H64.3491V3.48206H66.9826V7.96234L66.69 7.2562Z" fill="#CCD0FF"/>
<path d="M77.1743 15.2427C75.9552 15.2427 74.9067 14.9992 74.0288 14.5122C73.151 14.0252 72.4763 13.3233 72.005 12.406C71.5333 11.4891 71.2979 10.4135 71.2979 9.1797C71.2979 7.91353 71.5455 6.83417 72.0416 5.94123C72.5372 5.04868 73.2242 4.36689 74.102 3.8959C74.9798 3.42525 76.0039 3.18976 77.1743 3.18976C78.3447 3.18976 79.3689 3.42525 80.2467 3.8959C81.1245 4.36689 81.8073 5.04868 82.2949 5.94123C82.7826 6.83417 83.0265 7.91353 83.0265 9.1797C83.0265 11.063 82.506 12.5441 81.4659 13.6235C80.4254 14.7032 78.9948 15.2427 77.1743 15.2427ZM77.1743 5.576C76.1502 5.576 75.3536 5.89672 74.7847 6.53779C74.2155 7.17924 73.9313 8.05163 73.9313 9.15535C73.9313 9.88584 74.057 10.5273 74.3092 11.079C74.5611 11.631 74.9269 12.0613 75.4065 12.3695C75.8858 12.678 76.4672 12.8321 77.15 12.8321C78.1901 12.8321 78.9948 12.4954 79.564 11.8216C80.1328 11.1482 80.4174 10.2594 80.4174 9.15535C80.4174 8.42486 80.2871 7.79179 80.0273 7.2561C79.767 6.72042 79.3933 6.30649 78.9056 6.01428C78.4179 5.72209 77.8407 5.576 77.1743 5.576Z" fill="#CCD0FF"/>
<path d="M91.9265 11.7852H91.2193L91.6583 10.7625C91.5767 11.8339 91.3534 12.6945 90.9877 13.3436C90.6219 13.993 90.1586 14.472 89.5978 14.7802C89.037 15.0884 88.3825 15.2428 87.6349 15.2428C86.7083 15.2428 85.9684 15.0518 85.416 14.6706C84.8632 14.2894 84.4608 13.778 84.209 13.1366C83.9568 12.4955 83.8311 11.7692 83.8311 10.9573V3.48206H86.4645V10.2512C86.4645 10.7058 86.5376 11.1319 86.684 11.5295C86.8303 11.9275 87.0821 12.2478 87.4398 12.4913C87.7972 12.7348 88.2689 12.8566 88.8541 12.8566C89.423 12.8566 89.9064 12.7554 90.3049 12.5522C90.7031 12.3494 91.0121 12.0492 91.2315 11.6513C91.451 11.2537 91.5607 10.7869 91.5607 10.2512V3.48206H94.1942V14.9263H91.5607V11.006L91.9265 11.7852Z" fill="#CCD0FF"/>
<path d="M97.5348 6.62302H98.2175L97.803 7.6457C97.8841 6.59068 98.1036 5.73428 98.4614 5.07683C98.8188 4.41939 99.2862 3.94077 99.8634 3.64023C100.44 3.34005 101.095 3.18976 101.826 3.18976C102.737 3.18976 103.472 3.37655 104.033 3.74978C104.594 4.1234 105 4.63056 105.252 5.27162C105.504 5.91307 105.63 6.63937 105.63 7.4509V14.9262H102.997V8.18137C102.997 7.69439 102.919 7.26028 102.765 6.87869C102.61 6.49747 102.359 6.18091 102.009 5.92906C101.659 5.67757 101.192 5.55164 100.607 5.55164C100.054 5.55164 99.5746 5.65323 99.1685 5.85601C98.762 6.05916 98.4491 6.35517 98.2297 6.74476C98.0102 7.13434 97.9005 7.60535 97.9005 8.15702V14.9261H95.2671V3.48195H97.9005V7.40219L97.5348 6.62302Z" fill="#CCD0FF"/>
<path d="M106.435 9.25276C106.435 7.35351 106.825 5.8682 107.605 4.79682C108.385 3.72545 109.491 3.18977 110.921 3.18977C111.815 3.18977 112.559 3.36857 113.152 3.72545C113.745 4.08271 114.209 4.62258 114.542 5.34468C114.875 6.06718 115.091 6.96392 115.188 8.03529L115.042 9.13101C115.042 8.0273 114.77 7.15073 114.225 6.50129C113.68 5.85223 112.937 5.52731 111.994 5.52731C110.986 5.52731 110.238 5.85223 109.751 6.50129C109.263 7.15074 109.019 8.06802 109.019 9.25276C109.019 10.3892 109.259 11.2738 109.739 11.9068C110.218 12.5399 110.97 12.8565 111.994 12.8565C112.628 12.8565 113.172 12.7188 113.628 12.4425C114.083 12.1667 114.432 11.7649 114.676 11.2372C114.92 10.7099 115.042 10.0726 115.042 9.3258L115.188 10.3972C115.123 11.1764 114.985 11.8665 114.774 12.4669C114.562 13.0676 114.278 13.5748 113.92 13.9887C113.563 14.4026 113.136 14.7154 112.64 14.9262C112.144 15.1369 111.563 15.2427 110.897 15.2427C109.434 15.2427 108.324 14.707 107.568 13.6356C106.813 12.5643 106.435 11.1033 106.435 9.25276ZM115.457 7.37788H114.896L114.847 6.76913H115.457L115.457 7.37788ZM115.383 11.6877H114.871L114.896 11.0303H115.383V11.6877ZM115.042 14.9262V0H117.675V14.9262H115.042Z" fill="#CCD0FF"/>
<path d="M39.0143 32.4553C37.8927 32.4553 36.9417 32.3171 36.1614 32.0413C35.3811 31.7654 34.7308 31.3922 34.2107 30.9212C33.6903 30.4506 33.2921 29.9027 33.0159 29.2776C32.7393 28.6529 32.5526 27.9833 32.4551 27.2688L35.1617 26.7331C35.2752 27.4313 35.5069 28.0278 35.8566 28.5228C36.206 29.0182 36.6613 29.3956 37.2221 29.6551C37.783 29.9149 38.4291 30.0446 39.1606 30.0446C40.1196 30.0446 40.8389 29.8784 41.3186 29.5455C41.7979 29.213 42.0379 28.7461 42.0379 28.1454C42.0379 27.7558 41.9282 27.4191 41.7087 27.1349C41.4893 26.8511 41.1151 26.6114 40.5871 26.4166C40.0586 26.2218 39.3393 26.0597 38.4291 25.9296C37.0636 25.7025 35.9987 25.3859 35.2348 24.98C34.4706 24.5744 33.9219 24.0669 33.5889 23.4581C33.2556 22.8494 33.089 22.1798 33.089 21.4493C33.089 20.1672 33.5604 19.1403 34.5033 18.3691C35.4459 17.5983 36.8034 17.2125 38.5754 17.2125C39.8434 17.2125 40.8835 17.4237 41.6966 17.8456C42.5092 18.2679 43.1352 18.8318 43.5741 19.5379C44.013 20.244 44.33 21.0517 44.5251 21.9607L41.7941 22.5207C41.6478 21.8716 41.4443 21.3317 41.1845 20.9015C40.9242 20.4715 40.5749 20.1428 40.136 19.9153C39.6971 19.6882 39.1278 19.5744 38.4291 19.5744C37.6161 19.5744 36.9905 19.7411 36.5516 20.0736C36.1127 20.4065 35.8932 20.849 35.8932 21.4006C35.8932 21.7092 35.9823 22.0014 36.1614 22.2772C36.3401 22.5534 36.7016 22.7969 37.2465 23.0077C37.791 23.2189 38.5914 23.4216 39.6483 23.6164C40.6724 23.7789 41.5217 24.006 42.1964 24.2982C42.8708 24.5904 43.4034 24.9275 43.7935 25.3087C44.1837 25.6903 44.4599 26.1122 44.6226 26.5749C44.7849 27.0375 44.8664 27.5287 44.8664 28.048C44.8664 28.9246 44.6592 29.6958 44.2446 30.3612C43.8301 31.027 43.192 31.5421 42.3305 31.9074C41.4687 32.2726 40.3634 32.4553 39.0143 32.4553Z" fill="#CCD0FF"/>
<path d="M51.4009 32.4554C50.1817 32.4554 49.1332 32.2119 48.2554 31.7248C47.3776 31.2379 46.7029 30.5359 46.2316 29.6186C45.7599 28.7017 45.5244 27.6262 45.5244 26.3923C45.5244 25.1262 45.7721 24.0468 46.2681 23.1539C46.7638 22.2613 47.4507 21.5795 48.3286 21.1085C49.2064 20.6379 50.2305 20.4024 51.4009 20.4024C52.5713 20.4024 53.5954 20.6379 54.4732 21.1085C55.3511 21.5795 56.0338 22.2613 56.5215 23.1539C57.0092 24.0468 57.253 25.1262 57.253 26.3923C57.253 28.2756 56.7326 29.7568 55.6925 30.8361C54.652 31.9159 53.2213 32.4554 51.4009 32.4554ZM51.4009 22.7886C50.3768 22.7886 49.5801 23.1094 49.0113 23.7504C48.4421 24.3919 48.1579 25.2643 48.1579 26.368C48.1579 27.0985 48.2836 27.7399 48.5358 28.2916C48.7877 28.8436 49.1534 29.2739 49.6331 29.5821C50.1124 29.8907 50.6938 30.0448 51.3765 30.0448C52.4167 30.0448 53.2213 29.7081 53.7905 29.0343C54.3594 28.3608 54.644 27.4721 54.644 26.368C54.644 25.6375 54.5137 25.0044 54.2538 24.4687C53.9936 23.9331 53.6199 23.5191 53.1321 23.2269C52.6445 22.9347 52.0673 22.7886 51.4009 22.7886Z" fill="#CCD0FF"/>
<path d="M66.1291 28.9977H65.422L65.8609 27.975C65.7793 29.0464 65.5561 29.907 65.1903 30.556C64.8246 31.2055 64.3613 31.6845 63.8005 31.9926C63.2396 32.3008 62.5851 32.4553 61.8375 32.4553C60.911 32.4553 60.1711 32.2643 59.6186 31.8831C59.0658 31.5018 58.6635 30.9905 58.4116 30.349C58.1594 29.708 58.0337 28.9817 58.0337 28.1698V20.6945H60.6671V27.4636C60.6671 27.9183 60.7403 28.3444 60.8866 28.742C61.0329 29.1399 61.2847 29.4603 61.6425 29.7038C61.9998 29.9473 62.4715 30.069 63.0567 30.069C63.6256 30.069 64.109 29.9678 64.5076 29.7646C64.9057 29.5619 65.2147 29.2617 65.4342 28.8637C65.6536 28.4662 65.7634 27.9993 65.7634 27.4636V20.6945H68.3968V32.1387H65.7634V28.2185L66.1291 28.9977Z" fill="#CCD0FF"/>
<path d="M71.8102 23.8357H72.4929L72.0784 24.8583C72.1595 23.8033 72.379 22.9469 72.7368 22.2895C73.0941 21.632 73.5616 21.1534 74.1388 20.8529C74.7157 20.5527 75.3702 20.4024 76.1017 20.4024C77.0119 20.4024 77.7476 20.5892 78.3084 20.9624C78.8693 21.336 79.2754 21.8432 79.5276 22.4843C79.7795 23.1257 79.9056 23.852 79.9056 24.6635V32.1388H77.2722V25.394C77.2722 24.907 77.1948 24.4729 77.0405 24.0913C76.8858 23.7101 76.634 23.3936 76.2846 23.1417C75.9348 22.8902 75.4677 22.7643 74.8825 22.7643C74.3297 22.7643 73.85 22.8659 73.4439 23.0687C73.0374 23.2718 72.7245 23.5678 72.5051 23.9574C72.2856 24.347 72.1759 24.818 72.1759 25.3697V32.1388H69.5425V20.6946H72.1759V24.6148L71.8102 23.8357Z" fill="#CCD0FF"/>
<path d="M80.71 26.4653C80.71 24.566 81.1001 23.0807 81.8804 22.0093C82.6606 20.938 83.7659 20.4023 85.1966 20.4023C86.0904 20.4023 86.8341 20.5811 87.4277 20.938C88.0209 21.2952 88.4842 21.8351 88.8175 22.5572C89.1506 23.2797 89.3662 24.1764 89.4637 25.2478L89.3174 26.3435C89.3174 25.2398 89.045 24.3633 88.5006 23.7138C87.9558 23.0647 87.212 22.7398 86.2695 22.7398C85.2613 22.7398 84.5138 23.0647 84.0261 23.7138C83.5385 24.3633 83.2946 25.2805 83.2946 26.4653C83.2946 27.6017 83.5343 28.4863 84.014 29.1194C84.4932 29.7525 85.2454 30.069 86.2695 30.069C86.9034 30.069 87.4479 29.9313 87.9032 29.6551C88.3581 29.3792 88.7078 28.9775 88.9517 28.4497C89.1955 27.9224 89.3174 27.2852 89.3174 26.5383L89.4637 27.6097C89.3986 28.3889 89.2603 29.079 89.0492 29.6794C88.8378 30.2801 88.5531 30.7873 88.1958 31.2012C87.838 31.6152 87.4113 31.9279 86.9156 32.1387C86.4196 32.3495 85.8386 32.4552 85.1722 32.4552C83.7091 32.4552 82.5997 31.9195 81.8438 30.8482C81.0879 29.7768 80.71 28.3158 80.71 26.4653ZM89.732 24.5904H89.1711L89.1224 23.9817H89.732L89.732 24.5904ZM89.6588 28.9002H89.1467L89.1711 28.2428H89.6588V28.9002ZM89.3174 32.1387V17.2125H91.9509V32.1387H89.3174Z" fill="#CCD0FF"/>
<defs>
<linearGradient id="paint0_linear_138_744" x1="17.0665" y1="5.8297" x2="6.35486" y2="28.2649" gradientUnits="userSpaceOnUse">
<stop stop-color="#4133FF"/>
<stop offset="0.2663" stop-color="#7A34C0"/>
<stop offset="0.6211" stop-color="#C13673"/>
<stop offset="0.8746" stop-color="#ED3743"/>
<stop offset="1" stop-color="#FF3831"/>
</linearGradient>
</defs>
</svg>
