<svg width="41" height="43" viewBox="0 0 41 43" fill="none" xmlns="http://www.w3.org/2000/svg">
<path d="M5.11898 31.8002C5.1189 31.6861 5.1189 31.5684 5.1189 31.4471V10.9537C5.1189 8.97488 5.1189 7.98471 5.49085 7.22889C5.81803 6.56405 6.33972 6.02391 6.98184 5.68516C7.71184 5.30005 8.66818 5.30005 10.5794 5.30005H30.3726C32.2839 5.30005 33.239 5.30005 33.969 5.68516C34.6111 6.02391 35.1337 6.56405 35.4609 7.22889C35.8325 7.98397 35.8325 8.97294 35.8325 10.9479V31.4522C35.8325 32.309 35.8325 32.98 35.8021 33.5268M5.11898 31.8002C5.1203 33.5463 5.14171 34.4603 5.49085 35.1698C5.81803 35.8346 6.33972 36.3766 6.98184 36.7153C7.71113 37.1001 8.66631 37.1001 10.5738 37.1001H30.3784C32.2859 37.1001 33.2397 37.1001 33.969 36.7153C34.6111 36.3766 35.1337 35.8346 35.4609 35.1698C35.6713 34.7423 35.7625 34.2403 35.8021 33.5268M5.11898 31.8002L13.2545 21.973L13.257 21.9702C13.9785 21.0986 14.3399 20.6621 14.7685 20.5048C15.1451 20.3666 15.5562 20.3698 15.9308 20.5134C16.3577 20.6771 16.7134 21.1186 17.4247 22.0023L21.9825 27.6652C22.6409 28.4832 22.972 28.8946 23.3741 29.0597C23.7287 29.2054 24.1198 29.2218 24.4857 29.11C24.9022 28.9827 25.2688 28.6032 26.002 27.844L26.8502 26.9659C27.5967 26.193 27.97 25.8068 28.3924 25.6806C28.7635 25.5697 29.1602 25.5935 29.5171 25.7461C29.9236 25.9199 30.2532 26.3452 30.9127 27.1988L35.8021 33.5268M35.8021 33.5268L35.8325 33.566M25.5946 15.9C24.6523 15.9 23.8883 15.1091 23.8883 14.1334C23.8883 13.1577 24.6523 12.3667 25.5946 12.3667C26.537 12.3667 27.3009 13.1577 27.3009 14.1334C27.3009 15.1091 26.537 15.9 25.5946 15.9Z" stroke="white" stroke-width="2" stroke-linecap="round" stroke-linejoin="round"/>
</svg>
