<svg width="19" height="16" viewBox="0 0 19 16" fill="none" xmlns="http://www.w3.org/2000/svg">
<path d="M16.8799 1.41035C16.433 0.963226 15.9023 0.608538 15.3183 0.366546C14.7343 0.124554 14.1083 0 13.4761 0C12.844 0 12.218 0.124554 11.6339 0.366546C11.0499 0.608538 10.5193 0.963226 10.0724 1.41035L9.14488 2.33785L8.21738 1.41035C7.31465 0.507617 6.09028 0.000467917 4.81363 0.000467926C3.53698 0.000467936 2.31261 0.507617 1.40988 1.41035C0.507149 2.31308 9.51181e-09 3.53744 0 4.8141C-9.51181e-09 6.09075 0.507149 7.31512 1.40988 8.21785L9.14488 15.9528L16.8799 8.21785C17.327 7.77094 17.6817 7.24031 17.9237 6.65628C18.1657 6.07226 18.2902 5.44627 18.2902 4.8141C18.2902 4.18192 18.1657 3.55594 17.9237 2.97191C17.6817 2.38789 17.327 1.85726 16.8799 1.41035Z" fill="white"/>
</svg>
