<svg width="29" height="48" viewBox="0 0 29 48" fill="none" xmlns="http://www.w3.org/2000/svg">
<path d="M28.668 0H10.3593C5.77503 0 2.9383 4.57383 5.2878 8.17789C10.976 16.9033 19.3485 29.9528 20.9048 33.515C21.6609 35.2456 21.2007 36.5528 20.2161 37.5317C20.0842 37.6629 19.8914 37.6057 19.8208 37.4114C19.2277 35.7769 18.1913 34.1665 16.7285 32.7547C12.3937 28.5712 5.95934 27.7164 2.35689 30.8454C-1.24555 33.9743 -0.651901 39.9022 3.68286 44.0857C6.28963 46.6015 9.89684 47.7374 12.7084 47.9671C15.5842 48.2021 24.2565 47.3933 25.7824 38.3123C26.5399 33.8041 22.3933 28.1977 18.9776 22.8736C15.9806 18.202 13.3546 14.116 12.5994 12.9411L10.6244 9.87249C10.4248 9.56245 10.7481 9.14992 10.9876 9.40896C11.0085 9.43156 11.0295 9.45426 11.0506 9.47705C12.7362 11.3003 14.847 12.3487 17.0483 12.4519C19.0553 12.546 21.3593 12.8777 23.2065 13.7601C26.0784 15.132 27.7246 17.1749 28.4833 18.3402C28.6277 18.562 29 18.4672 29 18.2089V0.303997C29 0.136105 28.8513 0 28.668 0Z" fill="url(#paint0_linear_216_175)"/>
<defs>
<linearGradient id="paint0_linear_216_175" x1="19.9439" y1="8.73892" x2="1.55053" y2="38.7714" gradientUnits="userSpaceOnUse">
<stop stop-color="#4133FF"/>
<stop offset="0.2663" stop-color="#7A34C0"/>
<stop offset="0.6211" stop-color="#C13673"/>
<stop offset="0.8746" stop-color="#ED3743"/>
<stop offset="1" stop-color="#FF3831"/>
</linearGradient>
</defs>
</svg>
